<?xml version="1.0" encoding="utf-8"?>
<svg version="1.1" xmlns:xlink="http://www.w3.org/1999/xlink" width="32px" height="24px" xmlns="http://www.w3.org/2000/svg">
  <g transform="matrix(1 0 0 1 -300 -96 )">
    <path d="M 30.6 13.3721590909091  C 31.5333333333333 14.5596590909091  32 15.9204545454545  32 17.4545454545455  C 32 19.2613636363636  31.375 20.8039772727273  30.125 22.0823863636364  C 28.875 23.3607954545455  27.3666666666667 24  25.6 24  L 7.46666666666667 24  C 5.41111111111111 24  3.65277777777778 23.2528409090909  2.19166666666667 21.7585227272727  C 0.730555555555556 20.2642045454545  0 18.4659090909091  0 16.3636363636364  C 0 14.8636363636364  0.394444444444444 13.4914772727273  1.18333333333333 12.2471590909091  C 1.97222222222222 11.0028409090909  3.01111111111111 10.0738636363636  4.3 9.46022727272727  C 4.27777777777778 9.14204545454545  4.26666666666667 8.89772727272727  4.26666666666667 8.72727272727273  C 4.26666666666667 6.31818181818182  5.1 4.26136363636364  6.76666666666667 2.55681818181818  C 8.43333333333333 0.852272727272728  10.4444444444444 0  12.8 0  C 14.5555555555556 0  16.1472222222222 0.499999999999998  17.575 1.5  C 19.0027777777778 2.5  20.0444444444444 3.80681818181818  20.7 5.42045454545455  C 21.4777777777778 4.71590909090909  22.4 4.36363636363636  23.4666666666667 4.36363636363636  C 24.6444444444444 4.36363636363636  25.65 4.78977272727273  26.4833333333333 5.64204545454546  C 27.3166666666667 6.49431818181818  27.7333333333333 7.52272727272727  27.7333333333333 8.72727272727273  C 27.7333333333333 9.57954545454546  27.5055555555556 10.3636363636364  27.05 11.0795454545455  C 28.4833333333333 11.4204545454545  29.6666666666667 12.1846590909091  30.6 13.3721590909091  Z " fill-rule="nonzero" fill="#7f7f7f" stroke="none" transform="matrix(1 0 0 1 300 96 )" />
  </g>
</svg>