<?xml version="1.0" encoding="utf-8"?>
<svg version="1.1" xmlns:xlink="http://www.w3.org/1999/xlink" width="15px" height="15px" xmlns="http://www.w3.org/2000/svg">
  <g transform="matrix(1 0 0 1 -180 -378 )">
    <path d="M 14.6437740693196 6.20026972353338  C 14.8812580231066 6.46325016857721  15 6.77006068779501  15 7.12070128118678  C 15 7.47808496291301  14.8812580231066 7.78152393796359  14.6437740693196 8.0310182063385  L 8.37612323491656 14.6257585974376  C 8.12580231065469 14.8752528658125  7.83376123234917 15  7.5 15  C 7.15982028241335 15  6.87098844672657 14.8752528658125  6.63350449293967 14.6257585974376  L 0.365853658536585 8.0310182063385  C 0.121951219512195 7.78826702629804  0 7.48482805124747  0 7.12070128118678  C 0 6.76331759946055  0.121951219512195 6.45650708024275  0.365853658536585 6.20026972353338  L 1.0783055198973 5.44167228590695  C 1.32862644415918 5.19217801753203  1.6206675224647 5.06743088334457  1.95442875481386 5.06743088334457  C 2.29460847240051 5.06743088334457  2.58344030808729 5.19217801753203  2.8209242618742 5.44167228590695  L 5.65147625160462 8.41537424140256  L 5.65147625160462 1.29467296021578  C 5.65147625160462 0.944032366824005  5.77342747111682 0.640593391773431  6.01732991014121 0.38435603506406  C 6.2612323491656 0.128118678354684  6.55006418485238 0  6.88382541720154 0  L 8.11617458279846 0  C 8.44993581514763 0  8.7387676508344 0.128118678354684  8.98267008985879 0.38435603506406  C 9.22657252888318 0.640593391773431  9.34852374839538 0.944032366824005  9.34852374839538 1.29467296021578  L 9.34852374839538 8.41537424140256  L 12.1790757381258 5.44167228590695  C 12.4165596919127 5.19217801753203  12.7053915275995 5.06743088334457  13.0455712451861 5.06743088334457  C 13.3793324775353 5.06743088334457  13.6713735558408 5.19217801753203  13.9216944801027 5.44167228590695  L 14.6437740693196 6.20026972353338  Z " fill-rule="nonzero" fill="#17e68e" stroke="none" transform="matrix(1 0 0 1 180 378 )" />
  </g>
</svg>