<?xml version="1.0" encoding="utf-8"?>
<svg version="1.1" xmlns:xlink="http://www.w3.org/1999/xlink" width="20px" height="20px" xmlns="http://www.w3.org/2000/svg">
  <g transform="matrix(1 0 0 1 -131 -333 )">
    <path d="M 13.6658653846154 12.2495274102079  L 14.2548076923077 11.6572148708255  L 17.34375 8.50661625708885  L 13.0649038461538 7.85129174543163  L 12.2716346153846 7.72526780088217  L 11.9110576923077 6.96912413358538  L 10 2.91115311909263  L 10 15.047258979206  L 10.7091346153846 15.4379332073094  L 14.53125 17.5551354757404  L 13.8100961538462 13.0812854442344  L 13.6658653846154 12.2495274102079  Z M 19.9759615384615 7.60554505356018  C 20.0480769230769 7.83658895190086  19.9519230769231 8.08653644192396  19.6875 8.35538752362949  L 15.3245192307692 12.8166351606805  L 16.3581730769231 19.1178323881537  C 16.3982371794872 19.3950850661626  16.3741987179487 19.6114261709725  16.2860576923077 19.7668557025835  C 16.1979166666667 19.9222852341945  16.0616987179487 20  15.8774038461538 20  C 15.7411858974359 20  15.5809294871795 19.9495904221802  15.3966346153846 19.8487712665406  L 10 16.8746061751733  L 4.60336538461538 19.8487712665406  C 4.41907051282051 19.9495904221802  4.2588141025641 20  4.12259615384615 20  C 3.93830128205128 20  3.80208333333333 19.9222852341945  3.71394230769231 19.7668557025835  C 3.62580128205128 19.6114261709725  3.60176282051282 19.3950850661626  3.64182692307692 19.1178323881537  L 4.67548076923077 12.8166351606805  L 0.300480769230769 8.35538752362949  C 0.0440705128205128 8.08653644192396  -0.0480769230769231 7.83658895190086  0.0240384615384615 7.60554505356018  C 0.0961538461538462 7.37450115521949  0.3125 7.22957361898761  0.673076923076923 7.17076244486452  L 6.70673076923077 6.25078764965343  L 9.41105769230769 0.516698172652803  C 9.5713141025641 0.1722327242176  9.76762820512821 0  10 0  C 10.224358974359 0  10.4206730769231 0.1722327242176  10.5889423076923 0.516698172652803  L 13.2932692307692 6.25078764965343  L 19.3269230769231 7.17076244486452  C 19.6875 7.22957361898761  19.9038461538462 7.37450115521949  19.9759615384615 7.60554505356018  Z " fill-rule="nonzero" fill="#17e68e" stroke="none" transform="matrix(1 0 0 1 131 333 )" />
  </g>
</svg>