<?xml version="1.0" encoding="utf-8"?>
<svg version="1.1" xmlns:xlink="http://www.w3.org/1999/xlink" width="10px" height="20px" xmlns="http://www.w3.org/2000/svg">
  <g transform="matrix(1 0 0 1 -350 -24 )">
    <path d="M 9.27083333333333 14.9431818181818  C 9.75694444444444 15.2083333333333  10 15.530303030303  10 15.9090909090909  L 10 18.6363636363636  C 10 19.0151515151515  9.75694444444444 19.3371212121212  9.27083333333333 19.6022727272727  C 8.78472222222222 19.8674242424242  8.19444444444444 20  7.5 20  L 2.5 20  C 1.80555555555556 20  1.21527777777778 19.8674242424242  0.729166666666667 19.6022727272727  C 0.243055555555556 19.3371212121212  0 19.0151515151515  0 18.6363636363636  L 0 15.9090909090909  C 0 15.530303030303  0.243055555555556 15.2083333333333  0.729166666666667 14.9431818181818  C 1.21527777777778 14.6780303030303  1.80555555555556 14.5454545454545  2.5 14.5454545454545  L 7.5 14.5454545454545  C 8.19444444444444 14.5454545454545  8.78472222222222 14.6780303030303  9.27083333333333 14.9431818181818  Z M 9.27083333333333 7.67045454545455  C 9.75694444444444 7.93560606060606  10 8.25757575757576  10 8.63636363636363  L 10 11.3636363636364  C 10 11.7424242424242  9.75694444444444 12.0643939393939  9.27083333333333 12.3295454545455  C 8.78472222222222 12.594696969697  8.19444444444444 12.7272727272727  7.5 12.7272727272727  L 2.5 12.7272727272727  C 1.80555555555556 12.7272727272727  1.21527777777778 12.594696969697  0.729166666666667 12.3295454545455  C 0.243055555555556 12.0643939393939  0 11.7424242424242  0 11.3636363636364  L 0 8.63636363636363  C 0 8.25757575757576  0.243055555555556 7.93560606060606  0.729166666666667 7.67045454545455  C 1.21527777777778 7.40530303030303  1.80555555555556 7.27272727272727  2.5 7.27272727272727  L 7.5 7.27272727272727  C 8.19444444444444 7.27272727272727  8.78472222222222 7.40530303030303  9.27083333333333 7.67045454545455  Z M 9.27083333333333 0.397727272727273  C 9.75694444444444 0.662878787878787  10 0.984848484848484  10 1.36363636363636  L 10 4.09090909090909  C 10 4.46969696969697  9.75694444444444 4.79166666666667  9.27083333333333 5.05681818181818  C 8.78472222222222 5.3219696969697  8.19444444444444 5.45454545454545  7.5 5.45454545454545  L 2.5 5.45454545454545  C 1.80555555555556 5.45454545454545  1.21527777777778 5.3219696969697  0.729166666666667 5.05681818181818  C 0.243055555555556 4.79166666666667  0 4.46969696969697  0 4.09090909090909  L 0 1.36363636363636  C 0 0.984848484848484  0.243055555555556 0.662878787878787  0.729166666666667 0.397727272727273  C 1.21527777777778 0.132575757575757  1.80555555555556 0  2.5 0  L 7.5 0  C 8.19444444444444 0  8.78472222222222 0.132575757575757  9.27083333333333 0.397727272727273  Z " fill-rule="nonzero" fill="#86549d" stroke="none" transform="matrix(1 0 0 1 350 24 )" />
  </g>
</svg>