<?xml version="1.0" encoding="utf-8"?>
<svg version="1.1" xmlns:xlink="http://www.w3.org/1999/xlink" width="28px" height="15px" xmlns="http://www.w3.org/2000/svg">
  <g transform="matrix(1 0 0 1 -330 -437 )">
    <path d="M 20.7890625 11.7513020833333  C 22.8776041666667 10.6966145833333  24.6145833333333 9.27951388888889  26 7.5  C 24.4166666666667 5.45138888888889  22.4322916666667 3.91927083333333  20.046875 2.90364583333333  C 20.6822916666667 3.80642361111111  21 4.78298611111111  21 5.83333333333333  C 21 7.43923611111111  20.3151041666667 8.81293402777778  18.9453125 9.95442708333333  C 17.5755208333333 11.0959201388889  15.9270833333333 11.6666666666667  14 11.6666666666667  C 12.0729166666667 11.6666666666667  10.4244791666667 11.0959201388889  9.0546875 9.95442708333333  C 7.68489583333333 8.81293402777778  7 7.43923611111111  7 5.83333333333333  C 7 4.78298611111111  7.31770833333333 3.80642361111111  7.953125 2.90364583333333  C 5.56770833333333 3.91927083333333  3.58333333333333 5.45138888888889  2 7.5  C 3.38541666666667 9.27951388888889  5.12239583333333 10.6966145833333  7.2109375 11.7513020833333  C 9.29947916666667 12.8059895833333  11.5625 13.3333333333333  14 13.3333333333333  C 16.4375 13.3333333333333  18.7005208333333 12.8059895833333  20.7890625 11.7513020833333  Z M 14.53125 2.94270833333333  C 14.6770833333333 2.82118055555556  14.75 2.67361111111111  14.75 2.5  C 14.75 2.32638888888889  14.6770833333333 2.17881944444444  14.53125 2.05729166666667  C 14.3854166666667 1.93576388888889  14.2083333333333 1.875  14 1.875  C 12.6979166666667 1.875  11.5807291666667 2.26345486111111  10.6484375 3.04036458333333  C 9.71614583333333 3.81727430555556  9.25 4.74826388888889  9.25 5.83333333333333  C 9.25 6.00694444444444  9.32291666666667 6.15451388888889  9.46875 6.27604166666667  C 9.61458333333333 6.39756944444444  9.79166666666667 6.45833333333333  10 6.45833333333333  C 10.2083333333333 6.45833333333333  10.3854166666667 6.39756944444444  10.53125 6.27604166666667  C 10.6770833333333 6.15451388888889  10.75 6.00694444444444  10.75 5.83333333333333  C 10.75 5.08680555555556  11.0677083333333 4.44878472222222  11.703125 3.91927083333333  C 12.3385416666667 3.38975694444444  13.1041666666667 3.125  14 3.125  C 14.2083333333333 3.125  14.3854166666667 3.06423611111111  14.53125 2.94270833333333  Z M 27.6875 6.6015625  C 27.8958333333333 6.90538194444444  28 7.20486111111111  28 7.5  C 28 7.79513888888889  27.8958333333333 8.09461805555556  27.6875 8.3984375  C 26.2291666666667 10.3949652777778  24.2682291666667 11.9943576388889  21.8046875 13.1966145833333  C 19.3411458333333 14.3988715277778  16.7395833333333 15  14 15  C 11.2604166666667 15  8.65885416666667 14.3967013888889  6.1953125 13.1901041666667  C 3.73177083333333 11.9835069444444  1.77083333333333 10.3862847222222  0.3125 8.3984375  C 0.104166666666667 8.09461805555556  0 7.79513888888889  0 7.5  C 0 7.20486111111111  0.104166666666667 6.90538194444444  0.3125 6.6015625  C 1.77083333333333 4.61371527777778  3.73177083333333 3.01649305555555  6.1953125 1.80989583333333  C 8.65885416666667 0.60329861111111  11.2604166666667 0  14 0  C 16.7395833333333 0  19.3411458333333 0.60329861111111  21.8046875 1.80989583333333  C 24.2682291666667 3.01649305555555  26.2291666666667 4.61371527777778  27.6875 6.6015625  Z " fill-rule="nonzero" fill="#17e68e" stroke="none" transform="matrix(1 0 0 1 330 437 )" />
  </g>
</svg>