<?xml version="1.0" encoding="utf-8"?>
<svg version="1.1" xmlns:xlink="http://www.w3.org/1999/xlink" width="30px" height="31px" xmlns="http://www.w3.org/2000/svg">
  <g transform="matrix(1 0 0 1 -65 -338 )">
    <path d="M 20.9598214285714 27.2720424107143  C 22.8013392857143 26.262927827381  24.3136160714286 24.8934151785714  25.4966517857143 23.1635044642857  C 25.2511160714286 21.3759300595238  24.7628348214286 19.8910900297619  24.0318080357143 18.708984375  C 23.30078125 17.5268787202381  22.2712053571429 16.8435639880952  20.9430803571429 16.6590401785714  C 20.1953125 17.512462797619  19.3052455357143 18.178478422619  18.2728794642857 18.6570870535714  C 17.2405133928571 19.1356956845238  16.1495535714286 19.375  15 19.375  C 13.8504464285714 19.375  12.7594866071429 19.1356956845238  11.7271205357143 18.6570870535714  C 10.6947544642857 18.178478422619  9.8046875 17.512462797619  9.05691964285714 16.6590401785714  C 7.72879464285714 16.8435639880952  6.69921875 17.5268787202381  5.96819196428571 18.708984375  C 5.23716517857143 19.8910900297619  4.74888392857143 21.3759300595238  4.50334821428571 23.1635044642857  C 5.68638392857143 24.8934151785714  7.19866071428571 26.262927827381  9.04017857142857 27.2720424107143  C 10.8816964285714 28.2811569940476  12.8683035714286 28.7857142857143  15 28.7857142857143  C 17.1316964285714 28.7857142857143  19.1183035714286 28.2811569940476  20.9598214285714 27.2720424107143  Z M 19.5452008928571 15.7681361607143  C 20.80078125 14.470703125  21.4285714285714 12.9051339285714  21.4285714285714 11.0714285714286  C 21.4285714285714 9.23772321428571  20.80078125 7.67215401785714  19.5452008928571 6.37472098214286  C 18.2896205357143 5.07728794642857  16.7745535714286 4.42857142857143  15 4.42857142857143  C 13.2254464285714 4.42857142857143  11.7103794642857 5.07728794642857  10.4547991071429 6.37472098214286  C 9.19921875 7.67215401785714  8.57142857142857 9.23772321428571  8.57142857142857 11.0714285714286  C 8.57142857142857 12.9051339285714  9.19921875 14.470703125  10.4547991071429 15.7681361607143  C 11.7103794642857 17.0655691964286  13.2254464285714 17.7142857142857  15 17.7142857142857  C 16.7745535714286 17.7142857142857  18.2896205357143 17.0655691964286  19.5452008928571 15.7681361607143  Z M 28.8113839285714 9.47991071428571  C 29.6037946428571 11.3943452380952  30 13.4010416666667  30 15.5  C 30 17.5989583333333  29.6037946428571 19.6027715773809  28.8113839285714 21.5114397321429  C 28.0189732142857 23.4201078869048  26.9559151785714 25.0692894345238  25.6222098214286 26.458984375  C 24.2885044642857 27.8486793154762  22.6953125 28.9529389880952  20.8426339285714 29.7717633928571  C 18.9899553571429 30.590587797619  17.0424107142857 31  15 31  C 12.96875 31  11.0267857142857 30.590587797619  9.17410714285714 29.7717633928571  C 7.32142857142857 28.9529389880952  5.72544642857143 27.8515625  4.38616071428571 26.4676339285714  C 3.046875 25.0837053571429  1.98102678571429 23.4345238095238  1.18861607142857 21.5200892857143  C 0.396205357142857 19.6056547619048  0 17.5989583333333  0 15.5  C 0 13.4010416666667  0.396205357142857 11.3943452380952  1.18861607142857 9.47991071428571  C 1.98102678571429 7.56547619047619  3.046875 5.91629464285714  4.38616071428571 4.53236607142857  C 5.72544642857143 3.1484375  7.32142857142857 2.04706101190476  9.17410714285714 1.22823660714286  C 11.0267857142857 0.409412202380952  12.96875 0  15 0  C 17.03125 0  18.9732142857143 0.409412202380952  20.8258928571429 1.22823660714286  C 22.6785714285714 2.04706101190476  24.2745535714286 3.1484375  25.6138392857143 4.53236607142857  C 26.953125 5.91629464285714  28.0189732142857 7.56547619047619  28.8113839285714 9.47991071428571  Z " fill-rule="nonzero" fill="#20252b" stroke="none" transform="matrix(1 0 0 1 65 338 )" />
  </g>
</svg>