<?xml version="1.0" encoding="utf-8"?>
<svg version="1.1" xmlns:xlink="http://www.w3.org/1999/xlink" width="22px" height="27px" xmlns="http://www.w3.org/2000/svg">
  <g transform="matrix(1 0 0 1 -71 -404 )">
    <path d="M 6.11111111111111 8.59090909090909  L 6.11111111111111 12.2727272727273  L 15.8888888888889 12.2727272727273  L 15.8888888888889 8.59090909090909  C 15.8888888888889 7.23579545454545  15.4114583333333 6.07883522727273  14.4565972222222 5.12002840909091  C 13.5017361111111 4.16122159090909  12.349537037037 3.68181818181818  11 3.68181818181818  C 9.65046296296296 3.68181818181818  8.49826388888889 4.16122159090909  7.54340277777778 5.12002840909091  C 6.58854166666667 6.07883522727273  6.11111111111111 7.23579545454545  6.11111111111111 8.59090909090909  Z M 21.4652777777778 12.8096590909091  C 21.8217592592593 13.1676136363636  22 13.6022727272727  22 14.1136363636364  L 22 25.1590909090909  C 22 25.6704545454545  21.8217592592593 26.1051136363636  21.4652777777778 26.4630681818182  C 21.1087962962963 26.8210227272727  20.6759259259259 27  20.1666666666667 27  L 1.83333333333333 27  C 1.32407407407407 27  0.891203703703704 26.8210227272727  0.534722222222222 26.4630681818182  C 0.178240740740741 26.1051136363636  0 25.6704545454545  0 25.1590909090909  L 0 14.1136363636364  C 0 13.6022727272727  0.178240740740741 13.1676136363636  0.534722222222222 12.8096590909091  C 0.891203703703704 12.4517045454545  1.32407407407407 12.2727272727273  1.83333333333333 12.2727272727273  L 2.44444444444444 12.2727272727273  L 2.44444444444444 8.59090909090909  C 2.44444444444444 6.23863636363636  3.28472222222222 4.21875  4.96527777777778 2.53125  C 6.64583333333333 0.84375  8.65740740740741 0  11 0  C 13.3425925925926 0  15.3541666666667 0.84375  17.0347222222222 2.53125  C 18.7152777777778 4.21875  19.5555555555556 6.23863636363636  19.5555555555556 8.59090909090909  L 19.5555555555556 12.2727272727273  L 20.1666666666667 12.2727272727273  C 20.6759259259259 12.2727272727273  21.1087962962963 12.4517045454545  21.4652777777778 12.8096590909091  Z " fill-rule="nonzero" fill="#20252b" stroke="none" transform="matrix(1 0 0 1 71 404 )" />
  </g>
</svg>