<?xml version="1.0" encoding="utf-8"?>
<svg version="1.1" xmlns:xlink="http://www.w3.org/1999/xlink" width="24px" height="24px" xmlns="http://www.w3.org/2000/svg">
  <g transform="matrix(1 0 0 1 -101 -613 )">
    <path d="M 6.50390625 6.68345323741007  C 6.69921875 6.4484412470024  6.796875 6.13429256594724  6.796875 5.7410071942446  C 6.796875 5.34772182254196  6.69921875 5.03117505995204  6.50390625 4.79136690647482  C 6.30859375 4.5515587529976  6.05078125 4.43165467625899  5.73046875 4.43165467625899  C 5.39453125 4.43165467625899  5.09765625 4.55395683453238  4.83984375 4.79856115107914  C 4.58203125 5.0431654676259  4.453125 5.35731414868105  4.453125 5.7410071942446  C 4.453125 6.11510791366906  4.58203125 6.42446043165468  4.83984375 6.66906474820144  C 5.09765625 6.9136690647482  5.39453125 7.03597122302158  5.73046875 7.03597122302158  C 6.05078125 7.03597122302158  6.30859375 6.91846522781774  6.50390625 6.68345323741007  Z M 15.205078125 13.7697841726619  C 15.404296875 13.5587529976019  15.50390625 13.3141486810552  15.50390625 13.0359712230216  C 15.50390625 12.7673860911271  15.404296875 12.5275779376499  15.205078125 12.3165467625899  C 15.005859375 12.10551558753  14.75 12  14.4375 12  C 14.2265625 12  14.033203125 12.1079136690648  13.857421875 12.3237410071942  C 13.681640625 12.5395683453237  13.59375 12.7769784172662  13.59375 13.0359712230216  C 13.59375 13.3045563549161  13.681640625 13.5467625899281  13.857421875 13.7625899280576  C 14.033203125 13.9784172661871  14.2265625 14.0863309352518  14.4375 14.0863309352518  C 14.75 14.0863309352518  15.005859375 13.9808153477218  15.205078125 13.7697841726619  Z M 12.451171875 6.68345323741007  C 12.642578125 6.4484412470024  12.73828125 6.13429256594724  12.73828125 5.7410071942446  C 12.73828125 5.34772182254196  12.642578125 5.03117505995204  12.451171875 4.79136690647482  C 12.259765625 4.5515587529976  12.00390625 4.43165467625899  11.68359375 4.43165467625899  C 11.34765625 4.43165467625899  11.05078125 4.55395683453238  10.79296875 4.79856115107914  C 10.53515625 5.0431654676259  10.40625 5.35731414868105  10.40625 5.7410071942446  C 10.40625 6.11510791366906  10.53515625 6.42446043165468  10.79296875 6.66906474820144  C 11.05078125 6.9136690647482  11.34765625 7.03597122302158  11.68359375 7.03597122302158  C 12.00390625 7.03597122302158  12.259765625 6.91846522781774  12.451171875 6.68345323741007  Z M 19.875 13.7697841726619  C 20.078125 13.5587529976019  20.1796875 13.3141486810552  20.1796875 13.0359712230216  C 20.1796875 12.7673860911271  20.078125 12.5275779376499  19.875 12.3165467625899  C 19.671875 12.10551558753  19.41796875 12  19.11328125 12  C 18.90234375 12  18.708984375 12.1079136690648  18.533203125 12.3237410071942  C 18.357421875 12.5395683453237  18.26953125 12.7769784172662  18.26953125 13.0359712230216  C 18.26953125 13.3045563549161  18.357421875 13.5467625899281  18.533203125 13.7625899280576  C 18.708984375 13.9784172661871  18.90234375 14.0863309352518  19.11328125 14.0863309352518  C 19.41796875 14.0863309352518  19.671875 13.9808153477218  19.875 13.7697841726619  Z M 15.462890625 3.57553956834532  C 16.287109375 4.69304556354916  16.8203125 5.94244604316547  17.0625 7.32374100719424  C 16.8203125 7.28537170263789  16.546875 7.26618705035971  16.2421875 7.26618705035971  C 14.921875 7.26618705035971  13.70703125 7.63549160671463  12.59765625 8.37410071942446  C 11.48828125 9.11270983213429  10.615234375 10.1127098321343  9.978515625 11.3741007194245  C 9.341796875 12.6354916067146  9.0234375 14.0143884892086  9.0234375 15.5107913669065  C 9.0234375 16.2589928057554  9.11328125 16.9880095923261  9.29296875 17.6978417266187  C 9.01953125 17.726618705036  8.75390625 17.7410071942446  8.49609375 17.7410071942446  C 8.29296875 17.7410071942446  8.09765625 17.7338129496403  7.91015625 17.7194244604317  C 7.72265625 17.705035971223  7.5078125 17.673860911271  7.265625 17.6258992805755  C 7.0234375 17.5779376498801  6.849609375 17.5443645083933  6.744140625 17.5251798561151  C 6.638671875 17.5059952038369  6.42578125 17.4556354916067  6.10546875 17.3741007194245  C 5.78515625 17.2925659472422  5.58984375 17.242206235012  5.51953125 17.2230215827338  L 2.5546875 19.0503597122302  L 3.3984375 15.9136690647482  C 1.1328125 13.9664268585132  0 11.6163069544364  0 8.86330935251799  C 0 7.24220623501199  0.380859375 5.75059952038369  1.142578125 4.38848920863309  C 1.904296875 3.02637889688249  2.935546875 1.95443645083933  4.236328125 1.1726618705036  C 5.537109375 0.390887290167864  6.95703125 0  8.49609375 0  C 9.87109375 0  11.169921875 0.316546762589929  12.392578125 0.949640287769784  C 13.615234375 1.58273381294964  14.638671875 2.45803357314149  15.462890625 3.57553956834532  Z M 22.998046875 11.6043165467626  C 23.666015625 12.7697841726619  24 14.0335731414868  24 15.3956834532374  C 24 16.5179856115108  23.732421875 17.589928057554  23.197265625 18.6115107913669  C 22.662109375 19.6330935251799  21.9375 20.5611510791367  21.0234375 21.3956834532374  L 21.66796875 24  L 19.3359375 22.431654676259  C 18.1640625 22.7865707434053  17.3125 22.9640287769784  16.78125 22.9640287769784  C 15.4609375 22.9640287769784  14.24609375 22.6258992805755  13.13671875 21.9496402877698  C 12.02734375 21.273381294964  11.154296875 20.3549160671463  10.517578125 19.1942446043165  C 9.880859375 18.0335731414868  9.5625 16.7673860911271  9.5625 15.3956834532374  C 9.5625 14.0239808153477  9.880859375 12.757793764988  10.517578125 11.5971223021583  C 11.154296875 10.4364508393285  12.02734375 9.51798561151079  13.13671875 8.84172661870504  C 14.24609375 8.16546762589928  15.4609375 7.8273381294964  16.78125 7.8273381294964  C 18.0390625 7.8273381294964  19.22265625 8.16546762589928  20.33203125 8.84172661870504  C 21.44140625 9.51798561151079  22.330078125 10.4388489208633  22.998046875 11.6043165467626  Z " fill-rule="nonzero" fill="#20252b" stroke="none" transform="matrix(1 0 0 1 101 613 )" />
  </g>
</svg>