<?xml version="1.0" encoding="utf-8"?>
<svg version="1.1" xmlns:xlink="http://www.w3.org/1999/xlink" width="24px" height="24px" xmlns="http://www.w3.org/2000/svg">
  <g transform="matrix(1 0 0 1 -251 -613 )">
    <path d="M 8.19854991634133 19.198347107438  C 8.55995538204127 19.0495867768595  8.8388176240937 18.7878787878788  9.03513664249861 18.4132231404959  C 9.22253206915784 18.0385674931129  9.27161182375906 17.6584022038567  9.18237590630229 17.2727272727273  C 9.09313998884551 16.8870523415978  8.89235917456776 16.6115702479339  8.58003346346905 16.4462809917355  C 8.27663134411601 16.2920110192837  7.95092024539877 16.2865013774105  7.60290016731735 16.4297520661157  C 7.25488008923592 16.5730027548209  6.98717233686559 16.8264462809917  6.79977691020636 17.1900826446281  C 6.60345789180145 17.564738292011  6.54545454545455 17.9421487603306  6.62576687116565 18.3223140495868  C 6.70607919687674 18.702479338843  6.89793641940881 18.9807162534435  7.20133853876185 19.1570247933884  C 7.50474065811489 19.3333333333333  7.83714445064138 19.3471074380165  8.19854991634133 19.198347107438  Z M 9.99888455103179 16.7190082644628  C 10.132738427217 16.6584022038567  10.2308979364194 16.5564738292011  10.2933630786392 16.4132231404959  C 10.3647518126046 16.2699724517906  10.3803680981595 16.1239669421488  10.340211935304 15.9752066115702  C 10.3000557724484 15.8264462809917  10.2219743446737 15.7245179063361  10.1059676519799 15.6694214876033  C 9.98103736754044 15.6143250688705  9.85387618516453 15.6170798898072  9.7244841048522 15.6776859504132  C 9.59509202453988 15.7382920110193  9.49916341327384 15.8402203856749  9.4366982710541 15.9834710743802  C 9.28499721137758 16.3250688705234  9.34300055772448 16.5730027548209  9.61070831009481 16.7272727272727  C 9.7356385945343 16.7823691460055  9.86503067484663 16.7796143250689  9.99888455103179 16.7190082644628  Z M 12.5889570552147 15.0330578512397  C 13.0128276631344 16.030303030303  13.0239821528165 17.0798898071625  12.622420524261 18.1818181818182  C 12.2208588957055 19.3057851239669  11.515895147797 20.1322314049587  10.5075292805354 20.6611570247934  C 9.49916341327384 21.1900826446281  8.49972113775795 21.2561983471074  7.50920245398773 20.8595041322314  C 6.55437813720022 20.4848484848485  5.8962632459565 19.7878787878788  5.53485778025655 18.7685950413223  C 5.17345231455661 17.7493112947658  5.20245398773006 16.7162534435262  5.62186279977691 15.6694214876033  C 6.04127161182376 14.6446280991736  6.71723368655884 13.8787878787879  7.64974902398215 13.3719008264463  C 8.58226436140547 12.8650137741047  9.52147239263804 12.7603305785124  10.4673731176799 13.0578512396694  C 11.4578918014501 13.3774104683196  12.165086447295 14.0358126721763  12.5889570552147 15.0330578512397  Z M 15.0250976017847 19.9090909090909  C 16.3324037925265 18.603305785124  16.9235917456776 17.1460055096419  16.7986614612381 15.5371900826446  C 16.718349135527 14.4793388429752  16.3212493028444 13.5426997245179  15.6073619631902 12.7272727272727  C 14.893474623536 11.9118457300275  13.9631901840491 11.3112947658402  12.8165086447295 10.9256198347107  C 11.6698271054099 10.5399449035813  10.4450641383157 10.4242424242424  9.14221974344674 10.5785123966942  C 7.15225878416063 10.831955922865  5.50362520914668 11.6115702479339  4.19631901840491 12.9173553719008  C 2.88901282766313 14.2231404958678  2.29782487451199 15.6804407713499  2.42275515895148 17.2892561983471  C 2.50306748466258 18.3471074380165  2.90016731734523 19.2837465564738  3.61405465699944 20.099173553719  C 4.32794199665365 20.9146005509642  5.25822643614055 21.5151515151515  6.40490797546012 21.900826446281  C 7.5515895147797 22.2865013774105  8.77635248187396 22.4022038567493  10.0791968767429 22.2479338842975  C 12.069157836029 21.9944903581267  13.7177914110429 21.2148760330578  15.0250976017847 19.9090909090909  Z M 20.4662576687117 13.6776859504132  C 20.7696597880647 14.2561983471074  20.9213608477412 14.8980716253444  20.9213608477412 15.603305785124  C 20.9213608477412 16.3526170798898  20.7562744004462 17.1212121212121  20.4261015058561 17.9090909090909  C 20.095928611266 18.6969696969697  19.6095928611266 19.4517906336088  18.9670942554378 20.1735537190083  C 18.324595649749 20.8953168044077  17.5727830451757 21.5426997245179  16.7116564417178 22.1157024793388  C 15.8505298382599 22.6887052341598  14.8421639709983 23.1460055096419  13.6865588399331 23.4876033057851  C 12.5309537088678 23.8292011019284  11.3240379252649 24  10.0658114891244 24  C 8.80758505298382 24  7.58059118795315 23.8154269972452  6.38482989403235 23.4462809917355  C 5.18906860011155 23.0771349862259  4.11600669269381 22.564738292011  3.16564417177914 21.9090909090909  C 2.21528165086447 21.2534435261708  1.45008365867262 20.4214876033058  0.870050195203569 19.4132231404959  C 0.290016731734523 18.4049586776859  0 17.3057851239669  0 16.1157024793388  C 0 14.8484848484848  0.310094813162298 13.4986225895317  0.930284439486893 12.0661157024793  C 1.55047406581149 10.633608815427  2.43167875069716 9.21212121212121  3.57389849414389 7.80165289256198  C 5.08198549916341 5.93939393939394  6.60568878973787 4.63911845730027  8.14500836586726 3.90082644628099  C 9.68432794199665 3.16253443526171  10.7841606246514 3.20110192837465  11.4445064138316 4.01652892561984  C 12.0245398773006 4.72176308539945  12.1137757947574 5.8732782369146  11.7122141662019 7.47107438016529  C 11.6765197992192 7.62534435261708  11.6720580033463 7.73553719008264  11.6988287785834 7.80165289256198  C 11.7255995538204 7.86776859504132  11.7702175125488 7.90633608815427  11.8326826547685 7.91735537190083  C 11.8951477969883 7.92837465564738  11.9598438371445 7.92561983471074  12.026770775237 7.90909090909091  C 12.0936977133296 7.89256198347107  12.1539319576129 7.8732782369146  12.207473508087 7.85123966942149  L 12.2877858337981 7.81818181818182  C 13.5281650864473 7.16804407713499  14.6257668711656 6.84297520661157  15.5805911879532 6.84297520661157  C 16.5354155047407 6.84297520661157  17.218070273285 7.17906336088154  17.6285554935862 7.85123966942149  C 18.0301171221417 8.54545454545454  18.0301171221417 9.52617079889807  17.6285554935862 10.7933884297521  C 17.6107083100948 10.9366391184573  17.590630228667 11.0468319559229  17.5683212493028 11.1239669421488  C 17.5460122699387 11.2011019283747  17.5660903513664 11.2699724517906  17.6285554935862 11.3305785123967  C 17.6910206358059 11.3911845730028  17.74456218628 11.4325068870523  17.7891801450084 11.4545454545455  C 17.8337981037368 11.4765840220386  17.909648633575 11.5096418732782  18.0167317345231 11.5537190082645  C 18.5253764640268 11.7520661157025  18.9849414389292 12.0110192837466  19.3954266592303 12.3305785123967  C 19.8059118795315 12.6501377410468  20.1628555493586 13.099173553719  20.4662576687117 13.6776859504132  Z M 18.5789180145008 4.20661157024793  C 19.1054099274958 4.41046831955923  19.5560513106525 4.77134986225895  19.930842163971 5.28925619834711  C 20.3056330172895 5.80716253443526  20.5488008923592 6.40495867768595  20.6603457891801 7.08264462809917  C 20.7718906860011 7.76033057851239  20.7428890128277 8.40771349862259  20.5733407696598 9.02479338842975  C 20.5019520356944 9.27823691460055  20.3703290574456 9.46556473829201  20.1784718349136 9.58677685950413  C 19.9866146123815 9.70798898071625  19.7880646960402 9.73002754820937  19.5828220858896 9.65289256198347  C 19.377579475739 9.56473829201102  19.2258784160625 9.40220385674931  19.12771890686 9.16528925619835  C 19.0295593976576 8.92837465564738  19.0117122141662 8.6831955922865  19.0741773563859 8.4297520661157  C 19.2526491912995 7.73553719008265  19.1455660903514 7.12396694214876  18.7529280535416 6.59504132231405  C 18.3602900167317 6.06611570247934  17.882877858338 5.8732782369146  17.3206915783603 6.01652892561983  C 17.106525376464 6.07162534435262  16.9057445621863 6.02754820936639  16.718349135527 5.88429752066116  C 16.5309537088678 5.74104683195592  16.4194088120469 5.53719008264463  16.3837144450641 5.27272727272727  C 16.3390964863358 5.00826446280992  16.3747908533185 4.76308539944903  16.4907975460123 4.53719008264463  C 16.6068042387061 4.31129476584022  16.7718906860011 4.17079889807162  16.9860568878974 4.11570247933884  C 17.521472392638 3.97245179063361  18.0524261015059 4.00275482093664  18.5789180145008 4.20661157024793  Z M 19.5694366982711 0.37190082644628  C 20.6491912994981 0.785123966942149  21.5772448410485 1.52617079889807  22.3535973229225 2.59504132231405  C 23.1299498047964 3.65289256198347  23.6319018404908 4.87878787878788  23.8594534300056 6.27272727272727  C 24.0870050195204 7.66666666666667  24.026770775237 8.99724517906336  23.6787506971556 10.2644628099174  C 23.5984383714445 10.5619834710744  23.446737311768 10.7823691460055  23.223647518126 10.9256198347107  C 23.0005577244841 11.068870523416  22.7685443390965 11.0909090909091  22.5276073619632 10.9917355371901  C 22.2866703848299 10.8925619834711  22.1081985499163 10.7052341597796  21.9921918572225 10.4297520661157  C 21.8761851645287 10.1542699724518  21.8538761851645 9.86776859504132  21.92526491913 9.5702479338843  C 22.1751254880089 8.66666666666666  22.2197434467373 7.71900826446281  22.0591187953151 6.72727272727273  C 21.8984941438929 5.73553719008264  21.5415504740658 4.86501377410468  20.9882877858338 4.11570247933884  C 20.4350250976018 3.35537190082645  19.7746793084216 2.82920110192837  19.0072504182934 2.53719008264463  C 18.2398215281651 2.24517906336088  17.467930842164 2.19834710743802  16.69157836029 2.39669421487603  C 16.441717791411 2.46280991735537  16.2097044060234 2.41046831955923  15.9955382041272 2.2396694214876  C 15.7813720022309 2.06887052341598  15.6475181260457 1.82920110192837  15.5939765755717 1.52066115702479  C 15.5404350250976 1.21212121212121  15.5828220858896 0.92837465564738  15.7211377579476 0.669421487603307  C 15.8594534300056 0.410468319559229  16.0535415504741 0.247933884297521  16.303402119353 0.181818181818182  C 17.4010039040714 -0.10468319559229  18.4896820970441 -0.0413223140495855  19.5694366982711 0.37190082644628  Z " fill-rule="nonzero" fill="#20252b" stroke="none" transform="matrix(1 0 0 1 251 613 )" />
  </g>
</svg>