<?xml version="1.0" encoding="utf-8"?>
<svg version="1.1" xmlns:xlink="http://www.w3.org/1999/xlink" width="20px" height="20px" xmlns="http://www.w3.org/2000/svg">
  <g transform="matrix(1 0 0 1 -277 -279 )">
    <path d="M 5.6 10.9090909090909  L 7.2 10.9090909090909  L 7.2 5.45454545454545  L 4 5.45454545454545  L 4 9.09090909090909  C 4 9.59280303030303  4.15625 10.0213068181818  4.46875 10.3764204545455  C 4.78125 10.7315340909091  5.15833333333334 10.9090909090909  5.6 10.9090909090909  Z M 18.4 14.5454545454545  L 20 17.2727272727273  L 20 20  L 5.6 20  L 5.6 17.2727272727273  L 7.2 14.5454545454545  L 5.6 14.5454545454545  C 4.275 14.5454545454545  3.14375 14.0127840909091  2.20625 12.9474431818182  C 1.26875 11.8821022727273  0.8 10.5965909090909  0.8 9.09090909090909  L 0.8 4.54545454545455  L 0 3.63636363636364  L 0.4 1.81818181818182  L 6.4 1.81818181818182  L 6.8 0  L 18.8 0  L 19.2 2.72727272727273  L 18.4 3.18181818181818  L 18.4 14.5454545454545  Z " fill-rule="nonzero" fill="#8c5ea2" stroke="none" transform="matrix(1 0 0 1 277 279 )" />
  </g>
</svg>