<?xml version="1.0" encoding="utf-8"?>
<svg version="1.1" xmlns:xlink="http://www.w3.org/1999/xlink" width="20px" height="20px" xmlns="http://www.w3.org/2000/svg">
  <g transform="matrix(1 0 0 1 -70 -364 )">
    <path d="M 12.0793269230769 9.75260416666667  C 12.2315705128205 9.58767361111111  12.3076923076923 9.39236111111111  12.3076923076923 9.16666666666667  C 12.3076923076923 8.94097222222222  12.2315705128205 8.74565972222222  12.0793269230769 8.58072916666667  C 11.9270833333333 8.41579861111111  11.7467948717949 8.33333333333333  11.5384615384615 8.33333333333333  L 8.46153846153846 8.33333333333333  C 8.25320512820513 8.33333333333333  8.07291666666667 8.41579861111111  7.92067307692308 8.58072916666667  C 7.76842948717949 8.74565972222222  7.69230769230769 8.94097222222222  7.69230769230769 9.16666666666667  C 7.69230769230769 9.39236111111111  7.76842948717949 9.58767361111111  7.92067307692308 9.75260416666667  C 8.07291666666667 9.91753472222222  8.25320512820513 10  8.46153846153846 10  L 11.5384615384615 10  C 11.7467948717949 10  11.9270833333333 9.91753472222222  12.0793269230769 9.75260416666667  Z M 19.0024038461538 6.08072916666667  C 19.1546474358974 6.24565972222222  19.2307692307692 6.44097222222222  19 6.66666666666667  L 19 19.1666666666667  C 19.2307692307692 19.3923611111111  19.1546474358974 19.5876736111111  19.0024038461538 19.7526041666667  C 18.8501602564103 19.9175347222222  18.6698717948718 20  18.4615384615385 20  L 1.53846153846154 20  C 1.33012820512821 20  1.14983974358974 19.9175347222222  0.997596153846154 19.7526041666667  C 0.845352564102564 19.5876736111111  0.769230769230769 19.3923611111111  1 19.1666666666667  L 1 6.66666666666667  C 0.769230769230769 6.44097222222222  0.845352564102564 6.24565972222222  0.997596153846154 6.08072916666667  C 1.14983974358974 5.91579861111111  1.33012820512821 5.83333333333333  1.53846153846154 6  L 18.4615384615385 6  C 18.6698717948718 5.83333333333333  18.8501602564103 5.91579861111111  19.0024038461538 6.08072916666667  Z M 19.7716346153846 0.247395833333333  C 19.9238782051282 0.412326388888886  20 0.607638888888886  20 0.833333333333333  L 20 4.16666666666667  C 20 4.39236111111111  19.9238782051282 4.58767361111111  19.7716346153846 4.75260416666667  C 19.619391025641 4.91753472222222  19.4391025641026 5  19.2307692307692 5  L 0.769230769230769 5  C 0.560897435897436 5  0.380608974358975 4.91753472222222  0.228365384615385 4.75260416666667  C 0.076121794871795 4.58767361111111  0 4.39236111111111  0 4.16666666666667  L 0 0.833333333333333  C 0 0.607638888888886  0.076121794871795 0.412326388888886  0.228365384615385 0.247395833333333  C 0.380608974358975 0.0824652777777768  0.560897435897436 0  0.769230769230769 0  L 19.2307692307692 0  C 19.4391025641026 0  19.619391025641 0.0824652777777768  19.7716346153846 0.247395833333333  Z " fill-rule="nonzero" fill="#9f5eb8" stroke="none" transform="matrix(1 0 0 1 70 364 )" />
  </g>
</svg>