<?xml version="1.0" encoding="utf-8"?>
<svg version="1.1" xmlns:xlink="http://www.w3.org/1999/xlink" width="20px" height="18px" xmlns="http://www.w3.org/2000/svg">
  <g transform="matrix(1 0 0 1 -177 -133 )">
    <path d="M 19.5250320924262 7.44032366824005  C 19.8416773641421 7.75590020229265  20 8.12407282535401  20 8.54484153742414  C 20 8.97370195549562  19.8416773641421 9.3378287255563  19.5250320924262 9.6372218476062  L 11.1681643132221 17.5509103169252  C 10.8344030808729 17.8503034389751  10.4450149764656 18  10 18  C 9.5464270432178 18  9.16131792896876 17.8503034389751  8.84467265725289 17.5509103169252  L 0.48780487804878 9.6372218476062  C 0.16260162601626 9.34592043155765  0 8.98179366149697  0 8.54484153742414  C 0 8.11598111935266  0.16260162601626 7.7478084962913  0.48780487804878 7.44032366824005  L 1.43774069319641 6.53000674308834  C 1.77150192554557 6.23061362103843  2.16089002995293 6.08091706001349  2.60590500641849 6.08091706001349  C 3.05947796320069 6.08091706001349  3.44458707744972 6.23061362103843  3.7612323491656 6.53000674308834  L 7.53530166880616 10.0984490896831  L 7.53530166880616 1.55360755225893  C 7.53530166880616 1.13283884018881  7.69790329482242 0.768712070128117  8.02310654685494 0.461227242076872  C 8.34830979888746 0.153742414025621  8.7334189131365 0  9.17843388960205 0  L 10.8215661103979 0  C 11.2665810868635 0  11.6516902011125 0.153742414025621  11.9768934531451 0.461227242076872  C 12.3020967051776 0.768712070128117  12.4646983311938 1.13283884018881  12.4646983311938 1.55360755225893  L 12.4646983311938 10.0984490896831  L 16.2387676508344 6.53000674308834  C 16.5554129225503 6.23061362103843  16.9405220367993 6.08091706001349  17.3940949935815 6.08091706001349  C 17.8391099700471 6.08091706001349  18.2284980744544 6.23061362103843  18.5622593068036 6.53000674308834  L 19.5250320924262 7.44032366824005  Z " fill-rule="nonzero" fill="#17e68e" stroke="none" transform="matrix(1 0 0 1 177 133 )" />
  </g>
</svg>