<?xml version="1.0" encoding="utf-8"?>
<svg version="1.1" xmlns:xlink="http://www.w3.org/1999/xlink" width="15px" height="15px" xmlns="http://www.w3.org/2000/svg">
  <g transform="matrix(1 0 0 1 -231 -224 )">
    <path d="M 10.3125 0  L 14.375 0  C 14.5442708333333 0  14.6907552083333 0.0618489583333326  14.814453125 0.185546874999999  C 14.9381510416667 0.309244791666665  15 0.455729166666665  15 0.624999999999999  L 15 4.6875  C 15 4.77864583333333  14.970703125 4.853515625  14.912109375 4.912109375  C 14.853515625 4.970703125  14.7786458333333 5  14.6875 5  L 14.0625 5  C 13.9713541666667 5  13.896484375 4.970703125  13.837890625 4.912109375  C 13.779296875 4.853515625  13.75 4.77864583333333  13.75 4.6875  L 13.75 2.12890625  L 10.01953125 5.869140625  C 10.83984375 6.884765625  11.25 8.05338541666667  11.25 9.375  C 11.25 10.13671875  11.1018880208333 10.8642578125  10.8056640625 11.5576171875  C 10.5094401041667 12.2509765625  10.1090494791667 12.8499348958333  9.6044921875 13.3544921875  C 9.09993489583333 13.8590494791667  8.5009765625 14.2594401041667  7.8076171875 14.5556640625  C 7.1142578125 14.8518880208333  6.38671875 15  5.625 15  C 4.86328125 15  4.1357421875 14.8518880208333  3.4423828125 14.5556640625  C 2.7490234375 14.2594401041667  2.15006510416667 13.8590494791667  1.6455078125 13.3544921875  C 1.14095052083333 12.8499348958333  0.740559895833333 12.2509765625  0.4443359375 11.5576171875  C 0.148111979166667 10.8642578125  0 10.13671875  0 9.375  C 0 8.61328125  0.148111979166667 7.8857421875  0.4443359375 7.1923828125  C 0.740559895833333 6.4990234375  1.14095052083333 5.90006510416667  1.6455078125 5.3955078125  C 2.15006510416667 4.89095052083333  2.7490234375 4.49055989583333  3.4423828125 4.1943359375  C 4.1357421875 3.89811197916666  4.86328125 3.75  5.625 3.75  C 6.94661458333333 3.75  8.115234375 4.16015625  9.130859375 4.98046875  L 12.861328125 1.25  L 10.3125 1.25  C 10.2213541666667 1.25  10.146484375 1.220703125  10.087890625 1.162109375  C 10.029296875 1.103515625  10 1.02864583333333  10 0.9375  L 10 0.312500000000001  C 10 0.221354166666665  10.029296875 0.146484375  10.087890625 0.087890625  C 10.146484375 0.029296875  10.2213541666667 0  10.3125 0  Z M 2.5341796875 12.4658203125  C 3.39029947916667 13.3219401041667  4.42057291666667 13.75  5.625 13.75  C 6.82942708333333 13.75  7.85970052083333 13.3219401041667  8.7158203125 12.4658203125  C 9.57194010416667 11.6097005208333  10 10.5794270833333  10 9.375  C 10 8.17057291666667  9.57194010416667 7.14029947916667  8.7158203125 6.2841796875  C 7.85970052083333 5.42805989583333  6.82942708333333 5  5.625 5  C 4.42057291666667 5  3.39029947916667 5.42805989583333  2.5341796875 6.2841796875  C 1.67805989583333 7.14029947916667  1.25 8.17057291666667  1.25 9.375  C 1.25 10.5794270833333  1.67805989583333 11.6097005208333  2.5341796875 12.4658203125  Z " fill-rule="nonzero" fill="#17e68e" stroke="none" transform="matrix(1 0 0 1 231 224 )" />
  </g>
</svg>